HIERARCHY
ROOT Hips
{
     OFFSET 1.88212 96.90440 -13.34250
     CHANNELS 6 Xposition Yposition Zposition Zrotation Xrotation Yrotation
     JOINT Spine
     {
          OFFSET 0.00000 11.89050 0.00000
          CHANNELS 3 Zrotation Xrotation Yrotation
          JOINT Spine1
          {
               OFFSET -0.00000 25.65740 0.12766
               CHANNELS 3 Zrotation Xrotation Yrotation
               JOINT HEad
               {
                    OFFSET 0.00000 8.73416 0.01134
                    CHANNELS 3 Zrotation Xrotation Yrotation
                    End Site
                    {
                         OFFSET -0.29000 12.77420 2.51395
                    }
               }
               JOINT LeftShoulder1
               {
                    OFFSET 8.99000 -0.36225 -0.22000
                    CHANNELS 3 Zrotation Xrotation Yrotation
                    JOINT LeftArm
                    {
                         OFFSET 10.28270 -0.00338 0.32212
                         CHANNELS 3 Zrotation Xrotation Yrotation
                         JOINT LeftForeArm
                         {
                              OFFSET 32.76690 0.09914 -1.42434
                              CHANNELS 3 Zrotation Xrotation Yrotation
                              JOINT LeftHand
                              {
                                   OFFSET 27.56430 0.08536 1.02216
                                   CHANNELS 3 Zrotation Xrotation Yrotation
                                   End Site
                                   {
                                        OFFSET 16.74430 -0.60000 1.50291
                                   }
                              }
                         }
                    }
               }
               JOINT RightShoulder
               {
                    OFFSET -8.99000 -0.36225 -0.22000
                    CHANNELS 3 Zrotation Xrotation Yrotation
                    JOINT RightArm
                    {
                         OFFSET -10.28270 -0.00338 0.32212
                         CHANNELS 3 Zrotation Xrotation Yrotation
                         JOINT RightForeArm
                         {
                              OFFSET -32.89710 0.09914 -1.42434
                              CHANNELS 3 Zrotation Xrotation Yrotation
                              JOINT RightHand
                              {
                                   OFFSET -27.49210 0.08536 1.02216
                                   CHANNELS 3 Zrotation Xrotation Yrotation
                                   End Site
                                   {
                                        OFFSET -16.63120 -0.60000 1.50291
                                   }
                              }
                         }
                    }
               }
          }
     }
     JOINT LeftUpLeg
     {
          OFFSET 8.94580 -8.66707 0.10165
          CHANNELS 3 Zrotation Xrotation Yrotation
          JOINT LeftLeg
          {
               OFFSET 0.00000 -44.42270 1.37270
               CHANNELS 3 Zrotation Xrotation Yrotation
               JOINT LeftFoot
               {
                    OFFSET -0.25355 -42.09240 -1.46059
                    CHANNELS 3 Zrotation Xrotation Yrotation
                    JOINT LeftToes
                    {
                         OFFSET -0.04000 -4.41509 8.49910
                         CHANNELS 3 Zrotation Xrotation Yrotation
                         End Site
                         {
                              OFFSET 0.08000 -0.04745 9.77979
                         }
                    }
               }
          }
     }
     JOINT RightUpLeg
     {
          OFFSET -8.94580 -8.66707 0.10165
          CHANNELS 3 Zrotation Xrotation Yrotation
          JOINT RightLeg
          {
               OFFSET 0.00000 -44.42270 1.37270
               CHANNELS 3 Zrotation Xrotation Yrotation
               JOINT RightFoot
               {
                    OFFSET 0.25355 -42.09240 -1.46059
                    CHANNELS 3 Zrotation Xrotation Yrotation
                    JOINT RightToes
                    {
                         OFFSET 0.04000 -4.41509 8.49910
                         CHANNELS 3 Zrotation Xrotation Yrotation
                         End Site
                         {
                              OFFSET -0.08000 -0.13745 9.77979
                         }
                    }
               }
          }
     }
}
MOTION
Frames: 18
Frame Time: 0.01667
43.40505 83.53091 -121.38939 0.66988 -8.95068 -30.25749 -8.50707 30.52342 6.31437 -0.04167 0.09626 0.01373 -14.83764 3.62115 15.74790 -21.09534 34.71557 8.02546 -107.05019 -61.27945 -80.73755 -41.26104 55.14287 -93.56867 0.76450 4.11516 5.50244 -15.26070 39.73626 11.29565 89.88036 -26.79545 91.70377 42.10433 52.02940 84.94382 -5.27373 2.82733 -8.43561 11.37786 -20.73736 12.30577 26.96887 31.33150 -14.12143 5.78014 -0.10678 0.08643 -35.10339 -5.06364 -0.09184 -18.88191 -25.26669 -13.55862 -20.08344 47.71584 38.74714 9.38744 -0.01201 0.05552 -6.56693 -26.14292 -3.28044 
43.78413 80.51420 -121.92802 0.46934 -7.99810 -28.42756 -9.94190 34.64433 5.64616 -0.04125 0.08775 0.01603 -15.56079 1.93667 16.33816 -19.76833 31.19901 6.93783 -103.82206 -60.31891 -75.87682 -38.34451 54.84300 -96.11054 6.96815 1.85089 1.93187 -12.65659 35.81633 10.93581 79.42075 -25.43815 80.52574 30.24614 48.26971 98.13282 -4.78760 1.96843 -4.60009 12.32479 -26.25210 10.92837 29.67739 37.22314 -14.45624 9.43869 -0.08952 0.08963 -35.72135 -22.46179 4.25787 -19.70162 -30.25539 -14.79685 -28.22829 55.42072 45.04348 11.72558 -0.00019 0.10215 -8.91097 -32.07655 -2.80230 
44.32175 76.52715 -122.67758 0.71451 -6.60368 -24.67900 -10.67185 39.02807 3.32479 -0.04281 0.07526 0.01588 -16.82878 0.11908 17.08414 -18.29743 27.20032 5.93904 -101.47688 -59.45431 -73.33683 -36.40821 54.63589 -97.85134 1.54169 7.00988 1.08095 -9.64642 31.52054 10.76510 72.92657 -23.58080 73.76096 23.80001 44.69323 104.99316 -4.93255 5.12693 -2.75422 12.28533 -34.06211 8.06906 33.18307 43.71259 -16.86349 13.25619 -0.07731 0.08635 -43.98445 -15.95736 -3.72614 -22.33586 -36.14561 -17.65068 -38.63858 63.58088 53.69818 13.92877 0.01498 0.08317 -11.71241 -37.31380 -2.79993 
44.88472 72.25962 -123.60039 0.93015 -5.51478 -21.25722 -12.35911 43.82788 2.65653 -0.04066 0.06599 0.01305 -18.45356 -1.76211 17.70664 -16.11346 23.17219 4.65724 -99.81277 -58.65570 -72.21725 -35.18488 54.44363 -99.14725 5.36655 5.17922 -1.24767 -5.52184 27.21784 9.84029 68.65558 -21.74199 69.91875 20.22029 42.13406 108.67574 -4.29642 4.59109 -0.44022 12.12140 -42.85411 5.91405 39.49568 50.80050 -23.09311 16.30071 -0.04456 0.07069 -49.09259 -20.35556 -4.95329 -25.85965 -42.42498 -19.73736 -56.59360 71.55433 70.03458 16.32388 0.01833 0.08434 -14.62931 -42.10349 -3.18887 
45.39521 67.82869 -124.67367 1.15941 -4.67528 -18.11551 -15.22727 48.80252 3.76477 -0.04305 0.05537 0.00798 -19.15171 -3.77739 17.38088 -13.33309 19.09693 3.21214 -98.52096 -57.95696 -71.78508 -34.34031 54.43535 -100.42960 2.70275 8.32983 -1.19370 -1.13438 22.83949 8.78877 66.14335 -20.29642 67.84297 18.21845 40.63974 110.97451 -4.44714 6.29893 0.58003 12.01286 -52.25832 4.62862 49.23349 57.67223 -33.97355 19.16581 -0.02372 0.06459 -53.98163 -19.44942 -8.77162 -30.31999 -48.57909 -21.21856 -90.36884 76.79992 102.55419 19.06145 0.02641 0.08469 -17.62196 -46.34191 -3.66105 
45.78432 63.06121 -125.78647 1.42365 -4.04346 -15.18883 -19.64421 53.66085 7.03278 -0.04755 0.04358 0.01195 -19.04326 -5.73816 16.23509 -10.21134 15.04611 1.91375 -97.21292 -56.98321 -71.55344 -33.75451 54.37342 -101.67786 5.55050 7.01234 -2.16773 3.12777 18.49636 7.96317 64.97288 -19.42994 66.92023 19.94835 44.20175 112.88330 -6.74749 9.21436 -0.24340 12.62384 -61.76826 4.78192 63.14069 63.12175 -50.18392 22.15812 -0.01062 0.06083 -58.42837 -21.21069 -10.74259 -35.59881 -54.16119 -22.17371 -132.64830 76.01192 144.08110 22.32762 0.03591 0.08504 -21.14021 -49.80713 -5.43782 
45.97328 58.32923 -126.84708 1.71103 -3.59131 -12.47852 -26.13132 58.02510 12.92715 -0.05083 0.03318 0.00923 -18.19707 -7.55199 14.49844 -6.58152 11.08511 0.58228 -96.09062 -55.97404 -71.41527 -33.30584 54.29069 -103.08005 4.06785 9.09509 -1.57171 7.52174 14.23709 7.00276 64.45731 -18.84969 66.70615 21.08095 46.20919 114.23795 -8.50466 12.36717 -0.96394 15.74440 -70.65385 8.03295 79.65353 66.17605 -69.98473 25.44249 -0.00243 0.05164 -61.92193 -21.55254 -12.72166 -41.14950 -58.83774 -22.30758 -158.61084 71.14360 169.83154 26.01051 0.04406 0.07564 -24.94460 -52.91264 -7.10019 
45.93893 53.76640 -127.71447 1.99309 -3.29700 -9.98934 -35.15073 61.37340 21.86369 -0.05638 0.01931 0.00515 -16.63356 -9.13973 12.36928 -2.48091 7.27784 -0.66452 -95.02284 -54.95761 -71.23321 -33.11943 54.09520 -104.58070 5.71410 8.43379 -1.81694 12.11478 10.18229 5.98269 64.28520 -18.53363 66.82162 21.94213 47.27687 115.30200 4.46495 1.92776 7.62875 25.98111 -77.98280 18.76381 94.45904 67.19431 -88.72517 29.05184 -0.00048 0.03442 -64.86745 -21.95725 -13.60932 -46.14758 -62.38593 -21.01950 -172.14015 65.56621 183.71500 30.23097 0.05478 0.07231 -29.29995 -55.67284 -9.50476 
45.82973 49.43053 -128.21849 2.30936 -3.15758 -7.67564 -46.09930 62.96309 33.28650 -0.05598 -0.01628 0.00551 -14.78129 -11.67608 9.85375 -8.46307 2.10297 3.41669 -81.90064 -48.79444 -69.35732 -33.53655 53.37229 -105.08588 5.00889 9.84945 -1.00118 8.91862 7.08913 13.50205 69.72828 -24.19990 67.47272 22.73339 45.04570 114.57557 -3.66993 11.38553 -0.37234 50.40120 -83.25454 44.00528 106.64600 67.18481 -104.29932 32.70723 -0.00412 0.01423 -67.23293 -22.02011 -13.90994 -49.18285 -64.68058 -17.23896 -177.41646 60.60240 188.79959 36.45795 0.15904 0.07854 -62.97115 -56.96548 -41.37310 
45.64695 45.72177 -128.42050 2.68375 -3.17555 -5.53508 -54.92220 63.20863 42.80988 0.04100 -0.04783 -0.03468 -13.68706 -14.69100 7.44948 -3.98168 0.13059 1.76497 -82.71872 -47.88523 -70.34893 -34.03676 52.55684 -105.60857 5.62901 9.46799 -0.86333 13.42510 4.45635 10.80342 67.91052 -21.87255 68.49642 22.61043 44.32913 115.97411 0.83112 5.72634 3.64851 93.09891 -83.90794 87.64004 114.08842 67.34618 -115.36229 36.28053 -0.00890 -0.00049 -69.11543 -21.62945 -13.80889 -49.38800 -65.47729 -10.61691 -182.45027 57.19582 193.73804 42.22628 0.14387 0.03231 -51.02438 -60.49565 -26.65701 
45.47991 42.73898 -128.32307 3.10251 -3.33495 -3.55779 -61.06092 62.68926 49.78069 0.04059 -0.04238 -0.03602 -12.96647 -18.07996 4.92697 -0.54788 -1.18292 0.43403 -83.22948 -47.00838 -71.19303 -34.36762 51.82633 -106.25298 4.95394 10.30894 -0.01285 16.77050 2.59975 8.62237 66.97543 -20.55209 69.07552 22.37983 44.24943 117.78374 -4.23788 11.22789 -1.42528 112.72979 -81.93023 108.16852 118.74619 68.29283 -123.47401 39.67596 -0.01098 -0.00754 -70.34396 -21.19124 -13.34145 -47.75541 -64.84055 -2.65638 -186.04515 54.64661 197.35657 47.97270 0.14619 0.03418 -60.18925 -62.07272 -33.98785 
45.58100 40.59914 -127.86790 3.57510 -3.62366 -1.71824 -64.61611 61.81344 54.22710 0.03970 -0.04130 -0.03720 -12.51225 -21.71441 2.26487 1.85854 -2.08894 -0.33893 -88.04307 -44.58091 -77.42935 -37.02058 52.19969 -101.40665 5.17100 10.30947 -0.13765 11.43177 -4.10445 13.55259 72.84023 -24.03304 66.05681 21.81394 46.82062 120.76788 7.24624 5.80933 11.08235 115.77461 -80.00751 112.09969 127.14825 70.23956 -134.59869 44.28029 0.00461 0.02955 -71.59672 -21.86201 -13.60166 -45.79831 -62.83723 4.83182 -188.52394 53.11826 199.87036 53.54377 0.14723 0.02358 -58.88728 -64.25748 -29.78844 
45.87746 39.24676 -127.24131 4.12646 -4.05306 -0.01210 -66.18919 60.86081 56.66912 0.03716 -0.03077 -0.03067 -12.17289 -25.65012 -0.50473 3.60782 -2.48591 -1.17364 -90.63810 -42.71797 -80.79980 -32.76330 49.39695 -106.00923 13.68497 20.05076 -9.60605 14.53653 -3.85465 11.27376 72.35585 -22.65026 72.65832 25.14638 47.57881 117.79759 -3.17494 9.26462 -5.36598 112.64890 -78.75608 109.82413 134.19550 72.04483 -143.98392 47.95123 0.00942 0.00979 -72.17336 -22.02448 -13.47662 -44.34968 -59.66690 10.84451 -190.20268 52.62055 201.38599 58.80182 0.13670 0.00908 -63.33161 -66.14069 -31.56771 
46.42259 38.56516 -126.47380 4.74463 -4.59505 1.56028 -66.27325 59.92595 57.53255 0.03076 -0.02138 -0.02763 -11.76742 -29.85616 -3.32407 4.92665 -2.39842 -2.14240 -92.11932 -41.32562 -82.72049 -30.23443 47.98594 -108.44595 1.91791 6.84006 3.69840 17.11861 -3.39816 9.36922 71.76705 -21.99433 76.25143 26.91053 48.36207 117.12760 0.29301 7.85065 2.37869 106.74702 -78.18617 104.74399 141.43692 73.66496 -152.98286 50.96087 0.00774 0.00634 -72.40714 -22.40582 -13.39511 -43.64945 -55.68260 15.05743 -191.29485 53.04288 201.96613 63.67720 0.11792 -0.00457 -64.84048 -67.95010 -29.87351 
47.49898 38.70200 -125.52316 5.38235 -5.23665 2.95016 -63.09000 58.48949 55.03386 0.04347 -0.11307 -0.04906 -10.95298 -33.01519 -5.43697 5.51313 -0.84269 -2.72813 -95.43810 -38.47797 -88.43584 -31.05703 47.58714 -104.48055 17.90599 18.64875 -21.39635 19.39089 -1.56516 7.69447 73.50023 -22.45608 82.32707 32.80861 49.60590 111.16164 -6.03234 10.41023 -5.88945 98.11412 -78.21061 97.03751 153.53464 73.92279 -165.78049 54.41319 0.03769 0.04725 -72.71853 -23.91781 -14.05410 -43.73000 -51.16558 17.54621 -193.36414 55.47458 201.86070 67.80079 0.07112 -0.07676 -64.12160 -68.16279 -25.84324 
48.89881 39.23546 -124.52085 5.99432 -5.94553 4.13966 -57.53337 56.57497 49.90685 0.05519 -0.09667 -0.05450 -9.57173 -35.45031 -6.81218 5.21932 1.99238 -3.04106 -99.12036 -34.62991 -95.81895 -33.57721 47.88196 -96.83988 6.64976 15.38071 -18.12025 20.91019 1.42393 6.40766 74.50733 -22.90039 85.44792 35.95825 50.71690 108.39182 1.62751 22.28429 10.99648 86.47603 -78.55870 86.43951 162.98544 74.20174 -175.24690 57.15063 0.03502 0.02193 -72.84766 -25.36088 -14.57839 -44.48505 -46.49615 18.49077 -195.89334 59.17601 201.48003 71.28123 0.02103 -0.09452 -61.81207 -67.23624 -19.92235 
50.67018 40.12558 -123.49254 6.53238 -6.68276 5.10492 -50.58517 54.15977 43.03222 0.06474 -0.06459 -0.05558 -7.51803 -37.23886 -7.40337 4.43051 5.75512 -2.90929 -101.07475 -32.56172 -99.44006 -35.28878 48.37262 -92.96478 12.56522 15.84936 -15.33948 21.45774 5.33830 5.71190 75.16038 -23.47435 86.94326 29.98681 50.52377 114.54709 -1.89138 15.95889 -2.10336 71.69043 -78.85523 72.82163 170.91251 74.48772 -182.49754 59.39176 0.02600 0.01677 -72.85738 -26.69040 -15.10325 -45.74701 -41.91001 18.14649 -198.50612 63.79725 201.28876 74.26810 -0.01148 -0.08490 -59.98489 -65.36161 -14.83657 
53.10630 41.66937 -122.38075 6.91079 -7.40816 5.77570 -43.04792 51.25603 35.14586 0.07097 -0.03186 -0.05971 -4.72192 -38.36628 -7.24494 6.62494 -0.78345 -6.58038 -100.17987 -37.88915 -89.59263 -35.01081 51.02881 -96.98099 6.81025 13.26453 -8.95185 26.63998 -0.64865 5.86851 69.88332 -23.60035 79.41560 25.77074 50.42158 118.85103 -1.03702 9.38741 2.42756 53.68421 -78.67794 56.12918 178.22797 74.85337 -188.34688 61.41380 0.02506 0.01814 -72.63606 -28.13413 -15.45168 -47.24479 -37.29511 16.90151 -201.47005 69.56190 201.98337 77.00416 -0.03579 -0.07219 -59.05644 -62.86260 -10.59402 
